#N canvas 739 261 1057 612 16;
#X obj 271 301 osc~;
#X obj 331 301 osc~;
#X obj 389 300 osc~;
#X obj 443 300 osc~;
#X obj 503 300 osc~;
#X obj 557 300 osc~;
#X obj 613 300 osc~;
#X obj 667 300 osc~;
#X obj 721 293 osc~;
#X obj 259 249 * 0.5;
#X obj 337 246 * 1.5;
#X obj 449 241 * 2;
#X obj 506 239 * 3;
#X obj 560 241 * 4;
#X obj 727 241 * 8;
#X obj 667 246 * 6;
#X obj 619 243 * 5;
#X obj 523 171 mtof;
#X obj 536 649 outlet~;
#X obj 899 273 != 0;
#X obj 523 117 unpack;
#X obj 21 281 inlet;
#X obj 539 519 /~ 9;
#X obj 329 421 *~ 0;
#X obj 387 421 *~ 0;
#X obj 440 420 *~ 0;
#X obj 500 420 *~ 0;
#X obj 556 420 *~ 0;
#X obj 613 423 *~ 0;
#X obj 669 426 *~ 0;
#X obj 723 419 *~ 0;
#X obj 271 423 *~ 0;
#X obj 130 301 inlet;
#X obj 136 347 route 0 1 2 3 4 5 6 7 8;
#X msg 889 332 \$1 10;
#X obj 889 393 line~;
#X obj 543 577 *~;
#X connect 0 0 31 0;
#X connect 1 0 23 0;
#X connect 2 0 24 0;
#X connect 3 0 25 0;
#X connect 4 0 26 0;
#X connect 5 0 27 0;
#X connect 6 0 28 0;
#X connect 7 0 29 0;
#X connect 8 0 30 0;
#X connect 9 0 0 0;
#X connect 10 0 1 0;
#X connect 11 0 3 0;
#X connect 12 0 4 0;
#X connect 13 0 5 0;
#X connect 14 0 8 0;
#X connect 15 0 7 0;
#X connect 16 0 6 0;
#X connect 17 0 9 0;
#X connect 17 0 10 0;
#X connect 17 0 2 0;
#X connect 17 0 11 0;
#X connect 17 0 12 0;
#X connect 17 0 13 0;
#X connect 17 0 16 0;
#X connect 17 0 15 0;
#X connect 17 0 14 0;
#X connect 19 0 34 0;
#X connect 20 0 17 0;
#X connect 20 1 19 0;
#X connect 21 0 20 0;
#X connect 22 0 36 0;
#X connect 23 0 22 0;
#X connect 24 0 22 0;
#X connect 25 0 22 0;
#X connect 26 0 22 0;
#X connect 27 0 22 0;
#X connect 28 0 22 0;
#X connect 29 0 22 0;
#X connect 30 0 22 0;
#X connect 31 0 22 0;
#X connect 32 0 33 0;
#X connect 33 0 31 1;
#X connect 33 1 23 1;
#X connect 33 2 24 1;
#X connect 33 3 25 1;
#X connect 33 4 26 1;
#X connect 33 5 27 1;
#X connect 33 6 28 1;
#X connect 33 7 29 1;
#X connect 33 8 30 1;
#X connect 34 0 35 0;
#X connect 35 0 36 1;
#X connect 36 0 18 0;
