#N canvas 653 123 899 665 24;
#X obj 311 382 hammond~;
#X obj 237 605 dac~;
#X obj 397 74 ctlin;
#X obj 404 231 pack;
#X obj 470 151 / 127;
#X obj 37 20 notein;
#X obj 37 77 pack;
#X obj 312 473 leslie~;
#X obj 405 147 - 33;
#X obj 37 184 pack 0 0 0;
#X obj 245 330 hammond~;
#X obj 167 370 hammond~;
#X obj 97 314 hammond~;
#X obj 30 355 hammond~;
#X obj 688 92 ctlin;
#X obj 721 136 == 49;
#X obj 687 183 &&;
#X obj 689 227 + 0;
#X obj 755 233 nbx 4 10 -1e+37 1e+37 0 0 empty empty empty 0 -8 0 8
-262144 -1 -1 5 256 0;
#X obj 689 266 % 2;
#X obj 413 426 tgl 31 0 empty empty empty 17 7 0 10 -262144 -1 -1 1
1;
#X obj 36 244 route 1 2 3 4 5 6 7 8;
#X obj 390 333 hammond~;
#X obj 468 380 hammond~;
#X obj 551 330 hammond~;
#X obj 616 378 hammond~;
#X obj 38 126 poly 8;
#X connect 0 0 7 0;
#X connect 2 0 4 0;
#X connect 2 1 8 0;
#X connect 3 0 0 1;
#X connect 3 0 10 1;
#X connect 3 0 11 1;
#X connect 3 0 12 1;
#X connect 3 0 13 1;
#X connect 3 0 22 1;
#X connect 3 0 23 1;
#X connect 3 0 24 1;
#X connect 3 0 25 1;
#X connect 4 0 3 1;
#X connect 5 0 6 0;
#X connect 5 1 6 1;
#X connect 6 0 26 0;
#X connect 7 0 1 0;
#X connect 7 1 1 1;
#X connect 8 0 3 0;
#X connect 9 0 21 0;
#X connect 10 0 7 0;
#X connect 11 0 7 0;
#X connect 12 0 7 0;
#X connect 13 0 7 0;
#X connect 14 0 16 0;
#X connect 14 1 15 0;
#X connect 15 0 16 1;
#X connect 16 0 17 0;
#X connect 17 0 18 0;
#X connect 17 0 19 0;
#X connect 18 0 17 1;
#X connect 19 0 20 0;
#X connect 20 0 7 1;
#X connect 21 0 13 0;
#X connect 21 1 12 0;
#X connect 21 2 11 0;
#X connect 21 3 10 0;
#X connect 21 4 0 0;
#X connect 21 5 22 0;
#X connect 21 6 23 0;
#X connect 21 7 24 0;
#X connect 21 8 25 0;
#X connect 22 0 7 0;
#X connect 23 0 7 0;
#X connect 24 0 7 0;
#X connect 25 0 7 0;
#X connect 26 0 9 0;
#X connect 26 1 9 1;
#X connect 26 2 9 2;
